<?xml version="1.0" encoding="utf-8"?>
<!-- Generator: Adobe Illustrator 18.0.0, SVG Export Plug-In . SVG Version: 6.00 Build 0)  -->
<!DOCTYPE svg PUBLIC "-//W3C//DTD SVG 1.1//EN" "http://www.w3.org/Graphics/SVG/1.1/DTD/svg11.dtd">
<svg version="1.1" id="Layer_1" xmlns="http://www.w3.org/2000/svg" xmlns:xlink="http://www.w3.org/1999/xlink" x="0px" y="0px"
	 viewBox="0 0 72 72" enable-background="new 0 0 72 72" xml:space="preserve">
<g id="XMLID_1831_">
	<g id="XMLID_1833_">
		<path fill="#1B1B1B" d="M37,48.1c-0.6,0-1.1-0.5-1.1-1.1c0-0.6,0.5-1.1,1.1-1.1c0.6,0,1.1,0.5,1.1,1.1
			C38.1,47.6,37.6,48.1,37,48.1z M37,46.8c-0.1,0-0.2,0.1-0.2,0.2s0.1,0.2,0.2,0.2c0.1,0,0.2-0.1,0.2-0.2S37.1,46.8,37,46.8z"/>
	</g>
	<g id="XMLID_1834_">
		<path fill="#1B1B1B" d="M48.1,59.2H25.9c-0.6,0-1.1-0.4-1.2-0.9c-0.1-0.5,0.1-1,0.6-1.2c1.5-0.8,2.5-2,2.8-3.3
			c0.4-1.9,0.2-3.9,0.2-3.9c0-0.2,0-0.4,0.2-0.5c0.1-0.1,0.3-0.2,0.5-0.2h16.2c0.2,0,0.4,0.1,0.5,0.2c0.1,0.1,0.2,0.3,0.2,0.5
			c0,0-0.2,2,0.2,3.9c0.3,1.4,1.3,2.6,2.8,3.3c0.5,0.2,0.7,0.7,0.6,1.2C49.2,58.8,48.7,59.2,48.1,59.2z M26.6,57.9l20.8,0
			c-1.5-1-2.4-2.3-2.7-3.8c-0.3-1.4-0.3-2.8-0.3-3.6H29.6c0,0.8,0,2.2-0.3,3.6C29,55.6,28.1,56.9,26.6,57.9z"/>
	</g>
	<g id="XMLID_1835_">
		<path fill="#1B1B1B" d="M60.5,44.8h-47c-0.4,0-0.7-0.3-0.7-0.7c0-0.4,0.3-0.7,0.7-0.7h47c0.4,0,0.7,0.3,0.7,0.7
			C61.2,44.5,60.9,44.8,60.5,44.8z"/>
	</g>
	<g id="XMLID_1836_">
		<path fill="#1B1B1B" d="M62,50.5H10c-1.8,0-3.2-1.5-3.2-3.2V16c0-1.8,1.5-3.2,3.2-3.2H62c1.8,0,3.2,1.5,3.2,3.2v31.2
			C65.3,49,63.8,50.5,62,50.5z M10,14.1C8.9,14.1,8,15,8,16v31.2c0,1.1,0.9,1.9,1.9,1.9H62c1.1,0,1.9-0.9,1.9-1.9V16
			c0-1.1-0.9-1.9-1.9-1.9H10z"/>
	</g>
	<g id="XMLID_1837_">
		<g id="XMLID_1838_">
			<path fill="#1B1B1B" d="M19.7,25.5h-5.1c-0.4,0-0.7-0.3-0.7-0.7v-5.1c0-0.4,0.3-0.7,0.7-0.7h5.1c0.4,0,0.7,0.3,0.7,0.7v5.1
				C20.3,25.2,20,25.5,19.7,25.5z M15.2,24.2H19v-3.8h-3.8V24.2z"/>
		</g>
		<g id="XMLID_1839_">
			<path fill="#1B1B1B" d="M29.6,25.5h-5.1c-0.4,0-0.7-0.3-0.7-0.7v-5.1c0-0.4,0.3-0.7,0.7-0.7h5.1c0.4,0,0.7,0.3,0.7,0.7v5.1
				C30.3,25.2,30,25.5,29.6,25.5z M25.2,24.2H29v-3.8h-3.8V24.2z"/>
		</g>
		<g id="XMLID_1840_">
			<path fill="#1B1B1B" d="M39.5,25.5h-5.1c-0.4,0-0.7-0.3-0.7-0.7v-5.1c0-0.4,0.3-0.7,0.7-0.7h5.1c0.4,0,0.7,0.3,0.7,0.7v5.1
				C40.2,25.2,39.9,25.5,39.5,25.5z M35.1,24.2h3.8v-3.8h-3.8V24.2z"/>
		</g>
		<g id="XMLID_1841_">
			<path fill="#1B1B1B" d="M49.5,25.5h-5.1c-0.4,0-0.7-0.3-0.7-0.7v-5.1c0-0.4,0.3-0.7,0.7-0.7h5.1c0.4,0,0.7,0.3,0.7,0.7v5.1
				C50.1,25.2,49.8,25.5,49.5,25.5z M45,24.2h3.8v-3.8H45V24.2z"/>
		</g>
		<g id="XMLID_1842_">
			<path fill="#1B1B1B" d="M59.4,25.5h-5.1c-0.4,0-0.7-0.3-0.7-0.7v-5.1c0-0.4,0.3-0.7,0.7-0.7h5.1c0.4,0,0.7,0.3,0.7,0.7v5.1
				C60.1,25.2,59.8,25.5,59.4,25.5z M55,24.2h3.8v-3.8H55V24.2z"/>
		</g>
	</g>
	<g id="XMLID_1843_">
		<g id="XMLID_1844_">
			<path fill="#1B1B1B" d="M19.7,34.4h-5.1c-0.4,0-0.7-0.3-0.7-0.7v-5.1c0-0.4,0.3-0.7,0.7-0.7h5.1c0.4,0,0.7,0.3,0.7,0.7v5.1
				C20.3,34.1,20,34.4,19.7,34.4z M15.2,33.1H19v-3.8h-3.8V33.1z"/>
		</g>
		<g id="XMLID_1845_">
			<path fill="#1B1B1B" d="M29.6,34.4h-5.1c-0.4,0-0.7-0.3-0.7-0.7v-5.1c0-0.4,0.3-0.7,0.7-0.7h5.1c0.4,0,0.7,0.3,0.7,0.7v5.1
				C30.3,34.1,30,34.4,29.6,34.4z M25.2,33.1H29v-3.8h-3.8V33.1z"/>
		</g>
		<g id="XMLID_1846_">
			<path fill="#1B1B1B" d="M39.5,34.4h-5.1c-0.4,0-0.7-0.3-0.7-0.7v-5.1c0-0.4,0.3-0.7,0.7-0.7h5.1c0.4,0,0.7,0.3,0.7,0.7v5.1
				C40.2,34.1,39.9,34.4,39.5,34.4z M35.1,33.1h3.8v-3.8h-3.8V33.1z"/>
		</g>
		<g id="XMLID_1847_">
			<path fill="#1B1B1B" d="M49.5,34.4h-5.1c-0.4,0-0.7-0.3-0.7-0.7v-5.1c0-0.4,0.3-0.7,0.7-0.7h5.1c0.4,0,0.7,0.3,0.7,0.7v5.1
				C50.1,34.1,49.8,34.4,49.5,34.4z M45,33.1h3.8v-3.8H45V33.1z"/>
		</g>
		<g id="XMLID_1848_">
			<path fill="#1B1B1B" d="M59.4,34.4h-5.1c-0.4,0-0.7-0.3-0.7-0.7v-5.1c0-0.4,0.3-0.7,0.7-0.7h5.1c0.4,0,0.7,0.3,0.7,0.7v5.1
				C60.1,34.1,59.8,34.4,59.4,34.4z M55,33.1h3.8v-3.8H55V33.1z"/>
		</g>
	</g>
</g>
</svg>
