<?xml version="1.0" encoding="utf-8"?>
<!-- Generator: Adobe Illustrator 18.0.0, SVG Export Plug-In . SVG Version: 6.00 Build 0)  -->
<!DOCTYPE svg PUBLIC "-//W3C//DTD SVG 1.1//EN" "http://www.w3.org/Graphics/SVG/1.1/DTD/svg11.dtd">
<svg version="1.1" id="Layer_1" xmlns="http://www.w3.org/2000/svg" xmlns:xlink="http://www.w3.org/1999/xlink" x="0px" y="0px"
	 viewBox="0 0 72 72" enable-background="new 0 0 72 72" xml:space="preserve">
<g>
	<g>
		<path fill="#1B1B1B" d="M35.3,52.7c-9.5,0-17.2-7.7-17.2-17.2s7.7-17.2,17.2-17.2s17.2,7.7,17.2,17.2S44.8,52.7,35.3,52.7z
			 M35.3,19.4c-8.8,0-16,7.2-16,16s7.2,16,16,16s16-7.2,16-16S44.1,19.4,35.3,19.4z"/>
	</g>
	<g>
		<path fill="#1B1B1B" d="M26,40.4c-0.2,0-0.5-0.1-0.6-0.4c-0.7-1.4-1-3-1-4.6c0-6,4.9-10.9,10.9-10.9c2.7,0,5.4,1,7.4,2.9
			c0.3,0.2,0.3,0.6,0,0.9c-0.2,0.3-0.6,0.3-0.9,0c-1.8-1.6-4.1-2.5-6.5-2.5c-5.3,0-9.6,4.3-9.6,9.6c0,1.4,0.3,2.8,0.9,4.1
			c0.1,0.3,0,0.7-0.3,0.8C26.2,40.4,26.1,40.4,26,40.4z"/>
	</g>
	<g>
		<path fill="#1B1B1B" d="M35.3,46.3c-2.6,0-5.2-1-7.2-2.7c-0.3-0.2-0.3-0.6-0.1-0.9c0.2-0.3,0.6-0.3,0.9-0.1c1.8,1.5,4,2.4,6.4,2.4
			c5.3,0,9.6-4.3,9.6-9.6c0-1.1-0.2-2.1-0.5-3.1c-0.1-0.3,0.1-0.7,0.4-0.8c0.3-0.1,0.7,0.1,0.8,0.4c0.4,1.1,0.6,2.3,0.6,3.5
			C46.1,41.4,41.3,46.3,35.3,46.3z"/>
	</g>
	<g>
		<path fill="#1B1B1B" d="M24.9,44.8c-0.1,0-0.3,0-0.4-0.1c-0.3-0.2-0.3-0.6-0.1-0.9l5.3-6.7c0.2-0.3,0.6-0.3,0.8-0.1l2.1,1.5l3-4.2
			c0.1-0.1,0.2-0.2,0.4-0.3c0.2,0,0.3,0,0.5,0.1l2.2,1.6l7-9.2c0.2-0.3,0.6-0.3,0.9-0.1c0.3,0.2,0.3,0.6,0.1,0.9L39.4,37
			c-0.2,0.3-0.6,0.3-0.9,0.1l-2.2-1.6l-3,4.2c-0.2,0.3-0.6,0.3-0.9,0.1l-2.1-1.5l-4.9,6.2C25.3,44.7,25.1,44.8,24.9,44.8z"/>
	</g>
	<g>
		<path fill="#1B1B1B" d="M46.3,27.6C46.3,27.6,46.2,27.6,46.3,27.6l-2-0.1c-0.3,0-0.6-0.3-0.6-0.7c0-0.3,0.3-0.6,0.7-0.6l1.9,0.1
			c0.3,0,0.6,0.3,0.6,0.7C46.9,27.3,46.6,27.6,46.3,27.6z"/>
	</g>
	<g>
		<path fill="#1B1B1B" d="M46.7,29.7c-0.3,0-0.6-0.2-0.6-0.5l-0.4-2.2c-0.1-0.3,0.2-0.7,0.5-0.7c0.3-0.1,0.7,0.2,0.7,0.5l0.4,2.2
			c0.1,0.3-0.2,0.7-0.5,0.7C46.8,29.7,46.7,29.7,46.7,29.7z"/>
	</g>
	<g>
		<path fill="#1B1B1B" d="M35.1,52.7c-2.1,0-16.9-0.6-28.9-16.9C6,35.6,6,35.3,6.2,35c12.9-17.5,29-16.9,29.2-16.9
			c0.3,0,0.6,0.3,0.6,0.7c0,0.3-0.3,0.6-0.7,0.6c-0.2,0-15.4-0.5-27.8,16c12.4,16.5,27.7,16,27.8,16c0.3,0,0.6,0.2,0.7,0.6
			c0,0.3-0.2,0.6-0.6,0.7C35.3,52.7,35.2,52.7,35.1,52.7z"/>
	</g>
	<g>
		<path fill="#1B1B1B" d="M35.5,52.7c-0.2,0-0.2,0-0.2,0c-0.3,0-0.6-0.3-0.6-0.7c0-0.3,0.3-0.6,0.7-0.6c0.2,0,15.4,0.5,27.8-16
			c-12.4-16.5-27.7-16-27.8-16c-0.3,0-0.6-0.2-0.7-0.6c0-0.3,0.2-0.6,0.6-0.7c0.2,0,16.3-0.6,29.2,16.9c0.2,0.2,0.2,0.5,0,0.7
			C52.4,52.1,37.6,52.7,35.5,52.7z"/>
	</g>
</g>
</svg>
