<?xml version="1.0" encoding="utf-8"?>
<!-- Generator: Adobe Illustrator 18.0.0, SVG Export Plug-In . SVG Version: 6.00 Build 0)  -->
<!DOCTYPE svg PUBLIC "-//W3C//DTD SVG 1.1//EN" "http://www.w3.org/Graphics/SVG/1.1/DTD/svg11.dtd">
<svg version="1.1" id="Layer_1" xmlns="http://www.w3.org/2000/svg" xmlns:xlink="http://www.w3.org/1999/xlink" x="0px" y="0px"
	 viewBox="0 0 72 72" enable-background="new 0 0 72 72" xml:space="preserve">
<g>
	<g>
		<path fill="#1B1B1B" d="M26.8,16.1c-0.6,0-1.1-0.5-1.1-1.1c0-0.6,0.5-1.1,1.1-1.1s1.1,0.5,1.1,1.1C27.9,15.6,27.4,16.1,26.8,16.1z
			 M26.8,14.5c-0.3,0-0.5,0.2-0.5,0.5c0,0.3,0.2,0.5,0.5,0.5s0.5-0.2,0.5-0.5C27.3,14.7,27.1,14.5,26.8,14.5z"/>
	</g>
	<g>
		<path fill="#1B1B1B" d="M60.9,16.5c-0.6,0-1.1-0.5-1.1-1.1c0-0.6,0.5-1.1,1.1-1.1s1.1,0.5,1.1,1.1C62,16,61.5,16.5,60.9,16.5z
			 M60.9,14.9c-0.3,0-0.5,0.2-0.5,0.5c0,0.3,0.2,0.5,0.5,0.5c0.3,0,0.5-0.2,0.5-0.5C61.4,15.1,61.2,14.9,60.9,14.9z"/>
	</g>
	<g>
		<path fill="#1B1B1B" d="M64,62.3H6.7c-0.4,0-0.8-0.4-0.8-0.8s0.4-0.8,0.8-0.8H64c0.4,0,0.8,0.4,0.8,0.8S64.5,62.3,64,62.3z"/>
	</g>
	<g>
		<path fill="#1B1B1B" d="M13.8,56.9H5.9V35.2h7.9V56.9z M7.4,55.3h4.7V36.8H7.4V55.3z"/>
	</g>
	<g>
		<path fill="#1B1B1B" d="M64.8,56.9h-7.9V24.7h7.9V56.9z M58.5,55.3h4.7v-29h-4.7V55.3z"/>
	</g>
	<g>
		<path fill="#1B1B1B" d="M30.8,56.9h-7.9V24.4h7.9V56.9z M24.5,55.3h4.7V25.9h-4.7V55.3z"/>
	</g>
	<g>
		<path fill="#1B1B1B" d="M26.8,20.2c-2.9,0-5.3-2.4-5.3-5.3c0-2.9,2.4-5.3,5.3-5.3s5.3,2.4,5.3,5.3C32.1,17.9,29.7,20.2,26.8,20.2z
			 M26.8,11.3c-2,0-3.7,1.6-3.7,3.7c0,2,1.6,3.7,3.7,3.7s3.7-1.6,3.7-3.7C30.5,13,28.9,11.3,26.8,11.3z"/>
	</g>
	<g>
		<path fill="#1B1B1B" d="M60.9,20.6c-2.9,0-5.3-2.4-5.3-5.3s2.4-5.3,5.3-5.3s5.3,2.4,5.3,5.3S63.8,20.6,60.9,20.6z M60.9,11.7
			c-2,0-3.7,1.6-3.7,3.7s1.6,3.7,3.7,3.7s3.7-1.6,3.7-3.7S62.9,11.7,60.9,11.7z"/>
	</g>
	<g>
		<path fill="#1B1B1B" d="M47.8,56.9h-7.9V34h7.9V56.9z M41.5,55.3h4.7V35.6h-4.7V55.3z"/>
	</g>
	<g>
		<path fill="#1B1B1B" d="M43.9,28.2c-1.9,0-3.5-1.6-3.5-3.5s1.6-3.5,3.5-3.5s3.5,1.6,3.5,3.5S45.8,28.2,43.9,28.2z M43.9,22.8
			c-1,0-1.9,0.8-1.9,1.9c0,1,0.8,1.9,1.9,1.9c1,0,1.9-0.8,1.9-1.9C45.7,23.6,44.9,22.8,43.9,22.8z"/>
	</g>
	<g>
		<path fill="#1B1B1B" d="M9.8,29.3c-1.9,0-3.5-1.6-3.5-3.5s1.6-3.5,3.5-3.5s3.5,1.6,3.5,3.5S11.7,29.3,9.8,29.3z M9.8,23.9
			c-1,0-1.9,0.8-1.9,1.9s0.8,1.9,1.9,1.9s1.9-0.8,1.9-1.9S10.8,23.9,9.8,23.9z"/>
	</g>
	<g>
		
			<rect x="16.6" y="14.1" transform="matrix(0.5191 0.8547 -0.8547 0.5191 26.0238 -4.9425)" fill="#1B1B1B" width="1.6" height="13.1"/>
	</g>
	<g>
		
			<rect x="30" y="19.1" transform="matrix(0.847 0.5315 -0.5315 0.847 16.1101 -16.1183)" fill="#1B1B1B" width="12.1" height="1.6"/>
	</g>
	<g>
		
			<rect x="50.7" y="14.2" transform="matrix(0.4976 0.8674 -0.8674 0.4976 43.5381 -34.4805)" fill="#1B1B1B" width="1.6" height="12.3"/>
	</g>
</g>
</svg>
