<?xml version="1.0" encoding="utf-8"?>
<!-- Generator: Adobe Illustrator 18.0.0, SVG Export Plug-In . SVG Version: 6.00 Build 0)  -->
<!DOCTYPE svg PUBLIC "-//W3C//DTD SVG 1.1//EN" "http://www.w3.org/Graphics/SVG/1.1/DTD/svg11.dtd">
<svg version="1.1" id="Layer_1" xmlns="http://www.w3.org/2000/svg" xmlns:xlink="http://www.w3.org/1999/xlink" x="0px" y="0px"
	 viewBox="0 0 198.5 52.7" enable-background="new 0 0 198.5 52.7" xml:space="preserve">
<g>
	<g>
		<path fill="#FFFFFF" d="M49.5,2.8v46.5H3V2.8H49.5 M52.3,0H0.1v52.2h52.2V0L52.3,0z"/>
	</g>
</g>
<path fill="#FFFFFF" d="M93.1,32v2H83V17.3h2.3V32H93.1z"/>
<path fill="#FFFFFF" d="M97.6,34.1V17.3h10.2v2H100v5h7v2h-7v5.8h8.5v2H97.6z"/>
<path fill="#FFFFFF" d="M127.4,17.3c-0.6,1.8-1.2,3.4-1.8,4.9c-0.6,1.5-1.1,2.9-1.6,4.3c-0.5,1.4-1.1,2.6-1.6,3.9
	c-0.5,1.2-1.1,2.5-1.6,3.7h-2.2c-0.5-1.2-1.1-2.4-1.6-3.7c-0.5-1.2-1.1-2.5-1.6-3.9c-0.5-1.4-1.1-2.8-1.7-4.3s-1.1-3.1-1.7-4.9h2.6
	c0.9,2.5,1.7,5,2.6,7.3c0.8,2.4,1.7,4.6,2.6,6.6c0.9-2,1.7-4.2,2.6-6.6c0.8-2.4,1.7-4.8,2.5-7.4H127.4z"/>
<path fill="#FFFFFF" d="M132.2,34.1V17.3h10.2v2h-7.9v5h7v2h-7v5.8h8.5v2H132.2z"/>
<path fill="#FFFFFF" d="M158.5,32v2h-10.1V17.3h2.3V32H158.5z"/>
<path fill="#FAE35C" d="M171.4,34.4c-1.1,0-2-0.2-2.8-0.5c-0.8-0.3-1.5-0.8-2-1.4c-0.5-0.6-0.9-1.3-1.1-2.1
	c-0.2-0.8-0.4-1.7-0.4-2.6V17.3h2.3v10.2c0,1.7,0.4,2.9,1.1,3.6c0.7,0.8,1.7,1.1,2.9,1.1c0.6,0,1.1-0.1,1.6-0.3
	c0.5-0.2,0.9-0.5,1.3-0.9c0.4-0.4,0.6-0.9,0.8-1.5c0.2-0.6,0.3-1.3,0.3-2.2V17.3h2.3v10.5c0,0.9-0.1,1.8-0.4,2.6
	c-0.3,0.8-0.6,1.5-1.2,2.1c-0.5,0.6-1.2,1.1-2,1.4C173.5,34.3,172.5,34.4,171.4,34.4z"/>
<path fill="#FAE35C" d="M186.6,17.2c2.4,0,4.2,0.4,5.4,1.3c1.3,0.9,1.9,2.2,1.9,4c0,1-0.2,1.8-0.5,2.5c-0.3,0.7-0.8,1.2-1.5,1.7
	c-0.7,0.4-1.4,0.7-2.4,0.9c-0.9,0.2-2,0.3-3.2,0.3h-1.9v6.2h-2.3V17.6c0.7-0.2,1.4-0.3,2.2-0.3C185.2,17.2,186,17.2,186.6,17.2z
	 M186.8,19.2c-1,0-1.8,0-2.3,0.1v6.6h1.8c0.8,0,1.5-0.1,2.2-0.2c0.6-0.1,1.2-0.3,1.6-0.5c0.4-0.2,0.8-0.6,1-1c0.2-0.4,0.4-1,0.4-1.7
	c0-0.6-0.1-1.2-0.4-1.6c-0.2-0.4-0.6-0.8-1-1c-0.4-0.2-0.9-0.4-1.5-0.5C188.1,19.3,187.5,19.2,186.8,19.2z"/>
<g>
	<g>
		<path fill="#FAE35C" d="M26.2,18.8l8.9,15.1h-8.8h-0.3h-8.8L26.2,18.8 M26.2,13.2L12.4,36.7h13.7h0.3h13.7L26.2,13.2L26.2,13.2z"
			/>
	</g>
</g>
</svg>
