<?xml version="1.0" encoding="utf-8"?>
<!-- Generator: Adobe Illustrator 18.0.0, SVG Export Plug-In . SVG Version: 6.00 Build 0)  -->
<!DOCTYPE svg PUBLIC "-//W3C//DTD SVG 1.1//EN" "http://www.w3.org/Graphics/SVG/1.1/DTD/svg11.dtd">
<svg version="1.1" id="Layer_1" xmlns="http://www.w3.org/2000/svg" xmlns:xlink="http://www.w3.org/1999/xlink" x="0px" y="0px"
	 viewBox="-16 21 104 30" enable-background="new -16 21 104 30" xml:space="preserve">
<path fill="#00A2C5" d="M68.9,42.2c-7-7-14-14.1-21.1-21.1H34.3c9.2,9.2,18.3,18.4,27.5,27.5c0.8,0.7,1.8,1.4,2.8,1.7
	c3,1,6-0.7,6.3-3.5C71.1,44.9,70.2,43.5,68.9,42.2z"/>
<path fill="#00A2C5" d="M37.1,42.1c-7-7-13.9-14-20.9-20.9H2.7c9.2,9.2,18.4,18.4,27.6,27.6c0.9,0.9,2.3,1.5,3.5,1.8
	c1.9,0.5,3.5-0.2,4.7-1.8c1.1-1.6,0.9-3.2,0-4.8C38.1,43.3,37.6,42.6,37.1,42.1z"/>
<path fill="#00A2C5" d="M32,21.1H18.5c9.2,9.2,18.4,18.4,27.6,27.6c0.7,0.7,1.7,1.3,2.7,1.7c2.9,1,5.9-0.6,6.4-3.4
	c0.3-1.8-0.6-3.3-1.8-4.6C46.2,35.3,39.1,28.2,32,21.1z"/>
<path fill="#00A2C5" d="M-0.5,49.8c0.3,0.3,0.6,0.5,0.9,0.6h13C3.6,40.6-6.2,30.9-16,21.1h0v13.1c0,0.1,0.1,0.1,0.1,0.2
	C-10.7,39.5-5.6,44.7-0.5,49.8z"/>
<path fill="#00A2C5" d="M8.9,29.7C6,26.9,3.2,24,0.3,21.1h-13.5C-8.1,26.3-3,31.4,2.2,36.5c0.4,0.4,0.8,0.8,1.3,1.1
	c2,1.2,4.6,0.9,6.2-0.8c1.5-1.6,1.5-4,0.1-6C9.5,30.4,9.2,30.1,8.9,29.7z"/>
<path fill="#00A2C5" d="M-2.9,50.4c-4.3-4.3-8.7-8.7-13.1-13v13H-2.9z"/>
</svg>
