<?xml version="1.0" encoding="utf-8"?>
<!-- Generator: Adobe Illustrator 18.0.0, SVG Export Plug-In . SVG Version: 6.00 Build 0)  -->
<!DOCTYPE svg PUBLIC "-//W3C//DTD SVG 1.1//EN" "http://www.w3.org/Graphics/SVG/1.1/DTD/svg11.dtd">
<svg version="1.1" id="Layer_1" xmlns="http://www.w3.org/2000/svg" xmlns:xlink="http://www.w3.org/1999/xlink" x="0px" y="0px"
	 viewBox="0 0 104 30" enable-background="new 0 0 104 30" xml:space="preserve">
<g>
	<path fill="#099992" d="M14.4,0.5v-0.5h-1.4v0c-4.1,0-8.1,0-12.2,0c0,0,0,0,0,0H0v0.7c0,0,0,0.1,0,0.1C0,5,0,9.3,0,13.6
		c0,0,0,0.1,0,0.1v0.7h0.6c0.1,0,0.1,0,0.2,0c1.8,0,3.6,0,5.4,0c1.1,0,2.3,0,3.3,0c-1.5-1.6-3.1-3.1-4.7-4.7c-0.5,0.4-1,0.9-1.7,1.5
		c0-0.3-0.1-8.2-0.1-8.2s7.8,0.1,8.1,0.1c-0.7,0.7-1.2,1.3-1.6,1.7c1.6,1.6,3.1,3.1,4.6,4.6c0,0,0-0.1,0-0.1c0-2.9,0-5.9,0-8.8
		C14.4,0.5,14.4,0.5,14.4,0.5z"/>
</g>
<g>
	<path fill="#E78F25" d="M15.6,0.5v-0.5h1.4v0c4.1,0,8.1,0,12.2,0c0,0,0,0,0,0H30v0.7c0,0,0,0.1,0,0.1c0,4.3,0,8.6,0,12.9
		c0,0,0,0.1,0,0.1v0.7h-0.6c-0.1,0-0.1,0-0.2,0c-1.8,0-3.6,0-5.4,0c-1.1,0-2.3,0-3.3,0c1.5-1.6,3.1-3.1,4.7-4.7
		c0.5,0.4,1,0.9,1.7,1.5c0-0.3,0.1-8.2,0.1-8.2S19,3.2,18.7,3.2c0.7,0.7,1.2,1.3,1.6,1.7c-1.6,1.6-3.1,3.1-4.6,4.6c0,0,0-0.1,0-0.1
		c0-2.9,0-5.9,0-8.8C15.6,0.5,15.6,0.5,15.6,0.5z"/>
</g>
<g>
	<path fill="#6CB245" d="M15.6,29.5V30h1.4v0c4.1,0,8.1,0,12.2,0c0,0,0,0,0,0H30v-0.7c0,0,0-0.1,0-0.1c0-4.3,0-8.6,0-12.9
		c0,0,0-0.1,0-0.1v-0.7h-0.6c-0.1,0-0.1,0-0.2,0c-1.8,0-3.6,0-5.4,0c-1.1,0-2.3,0-3.3,0c1.5,1.6,3.1,3.1,4.7,4.7
		c0.5-0.4,1-0.9,1.7-1.5c0,0.3,0.1,8.2,0.1,8.2s-7.8-0.1-8.1-0.1c0.7-0.7,1.2-1.3,1.6-1.7c-1.6-1.6-3.1-3.1-4.6-4.6c0,0,0,0.1,0,0.1
		c0,2.9,0,5.9,0,8.8C15.6,29.4,15.6,29.4,15.6,29.5z"/>
</g>
<g>
	<path fill="#FFFFFF" d="M38.1,9.2h1.6v7.6h3.7v1.4h-5.3V9.2z"/>
	<path fill="#FFFFFF" d="M46.5,9.2v8.9h-1.6V9.2H46.5z"/>
	<path fill="#FFFFFF" d="M50.3,10.6h-2.5V9.2h6.8v1.4H52v7.6h-1.6V10.6z"/>
	<path fill="#FFFFFF" d="M55.7,16.4c0.5,0.3,1.3,0.6,2.2,0.6c1,0,1.6-0.5,1.6-1.2c0-0.7-0.5-1.1-1.6-1.5c-1.5-0.5-2.4-1.3-2.4-2.6
		c0-1.5,1.2-2.6,3.2-2.6c1,0,1.7,0.2,2.1,0.5l-0.4,1.3c-0.3-0.2-0.9-0.4-1.8-0.4c-1,0-1.5,0.6-1.5,1.1c0,0.7,0.5,1,1.7,1.5
		c1.6,0.6,2.3,1.4,2.3,2.7c0,1.4-1.1,2.7-3.4,2.7c-0.9,0-1.9-0.3-2.4-0.6L55.7,16.4z"/>
</g>
<g>
	<polygon fill="#179ED8" points="10.7,15.5 0,15.5 0,29.9 14.4,29.9 14.4,19.2 	"/>
</g>
</svg>
