<?xml version="1.0" encoding="utf-8"?>
<!-- Generator: Adobe Illustrator 18.0.0, SVG Export Plug-In . SVG Version: 6.00 Build 0)  -->
<!DOCTYPE svg PUBLIC "-//W3C//DTD SVG 1.1//EN" "http://www.w3.org/Graphics/SVG/1.1/DTD/svg11.dtd">
<svg version="1.1" id="Layer_1" xmlns="http://www.w3.org/2000/svg" xmlns:xlink="http://www.w3.org/1999/xlink" x="0px" y="0px"
	 viewBox="245.6 405.9 104 30" enable-background="new 245.6 405.9 104 30" xml:space="preserve">
<path fill="#023A78" d="M260.9,435.9c-4.3,0-8.6,0-12.8,0c-1.4,0-2-0.5-1.9-2c0.9-8.9,1.7-17.6,2.5-26.5c0.2-1.1,0.7-1.7,1.9-1.7
	c8.7,0,17.4,0,26.1,0c1.4,0,1.6,0.9,1.5,2.1c-0.7,7.2-1.4,14.5-2.1,21.8c-0.1,1.4-0.3,2.8-0.4,4.2c-0.1,1.7-0.9,2.2-2.5,2.1
	C269,435.9,264.9,435.9,260.9,435.9z M267.1,410.5c-1.8,0-3.4,0.1-5,0c-1.2-0.1-1.6,0.3-1.7,1.4c-0.2,3.3-0.6,6.4-0.9,9.7
	c-0.3,3.1-0.6,6.3-0.9,9.6c2.2,0,4.3,0,6.5,0C265.7,424.2,266.4,417.4,267.1,410.5z"/>
<path fill="#023A78" d="M292.5,435.9c-4.2,0-8.3,0-12.4,0c-1.9,0-2.2-0.4-2-2.1c0.8-8.7,1.7-17.3,2.5-26c0-1.5,0.6-2.1,2.1-2.1
	c8.5,0,17,0,25.5,0c1.3,0,1.9,0.5,1.8,1.9c-0.8,8.8-1.7,17.5-2.5,26.3c-0.1,1.5-0.8,2-2.3,2C301,435.9,296.7,435.9,292.5,435.9z
	 M303.1,416.4c0.1-2.8-0.9-4.6-3.1-5.5c-3.6-1.3-7.2-1.3-10.7,0.4c-2.3,1.1-3.6,3.1-3.5,5.8c0.1,2.5,1.8,3.8,4,4.6
	c1.6,0.6,3.4,1,5.1,1.5c1,0.3,2,0.9,1.6,2c-0.3,0.8-1.2,1.6-2,1.8c-2.2,0.6-3.1-0.2-4.3-3.4c-1.9,0.1-3.9,0.3-5.8,0.4
	c-0.2,3.4,1.3,5.9,4.2,6.7c3.6,1,7.2,1.1,10.6-0.8c2.7-1.4,4.2-3.9,3.9-6.9c-0.2-3-2.4-4.2-4.9-5c-1.6-0.5-3.4-0.8-5-1.4
	c-0.5-0.2-1.1-0.8-1.1-1.2c0-0.5,0.6-1.1,1.1-1.3c1.7-0.7,3.1,0.1,4.1,2.4C299.3,416.6,301.2,416.5,303.1,416.4z"/>
<path fill="#023A78" d="M327.4,405.7c4.2,0,8.3,0,12.4,0c1.8,0,2.2,0.4,2,2.2c-0.8,8.6-1.6,17.1-2.4,25.7c-0.2,2-0.5,2.3-2.7,2.3
	c-8.3,0-16.5,0-24.7,0c-2,0-2.2-0.3-2-2.2c0.8-8.5,1.6-17,2.4-25.5c0.1-2.2,0.4-2.5,2.7-2.5C319.1,405.7,323.3,405.7,327.4,405.7z
	 M313.8,431.2c1.5,0,2.8-0.1,4.2,0c1.8,0.2,2.8-0.4,3.3-2.1c0.1-0.5,0.7-1.1,1.2-1.2c2.1-0.1,4.2-0.1,6.4-0.1
	c0.2,0.9,0.3,1.7,0.6,2.4c0.1,0.4,0.5,0.9,0.8,0.9c1.9,0.1,4,0,6.1,0c-1.8-6.8-3.7-13.3-5.5-19.9c-0.1-0.4-0.8-0.8-1.2-0.8
	c-1.4-0.1-3,0-4.4-0.1c-1.2-0.1-1.8,0.4-2.3,1.4c-2.8,6-5.6,11.9-8.5,17.8C314.2,430.1,314,430.5,313.8,431.2z"/>
<path fill="#023A78" d="M326.4,416.1c0.5,2.7,1,4.8,1.4,7c-1.5,0-2.8,0-4.3,0C324.5,420.8,325.4,418.7,326.4,416.1z"/>
</svg>
