<?xml version="1.0" encoding="utf-8"?>
<!-- Generator: Adobe Illustrator 18.0.0, SVG Export Plug-In . SVG Version: 6.00 Build 0)  -->
<!DOCTYPE svg PUBLIC "-//W3C//DTD SVG 1.1//EN" "http://www.w3.org/Graphics/SVG/1.1/DTD/svg11.dtd">
<svg version="1.1" id="Layer_1" xmlns="http://www.w3.org/2000/svg" xmlns:xlink="http://www.w3.org/1999/xlink" x="0px" y="0px"
	 viewBox="0 0 204.7 64" enable-background="new 0 0 204.7 64" xml:space="preserve">
<g>
	<g>
		<path fill="#FFFFFF" d="M54.2,8.3v46.5H7.6V8.3H54.2 M57,5.5H4.8v52.2H57V5.5L57,5.5z"/>
	</g>
</g>
<path fill="#FFFFFF" d="M97.8,37.5v2H87.7V22.8H90v14.7H97.8z"/>
<path fill="#FFFFFF" d="M102.3,39.6V22.8h10.2v2h-7.9v5h7v2h-7v5.8h8.5v2H102.3z"/>
<path fill="#FFFFFF" d="M132.1,22.8c-0.6,1.8-1.2,3.4-1.8,4.9c-0.6,1.5-1.1,2.9-1.6,4.3c-0.5,1.4-1.1,2.6-1.6,3.9
	c-0.5,1.2-1.1,2.5-1.6,3.7h-2.2c-0.5-1.2-1.1-2.4-1.6-3.7c-0.5-1.2-1.1-2.5-1.6-3.9c-0.5-1.4-1.1-2.8-1.7-4.3
	c-0.6-1.5-1.1-3.1-1.7-4.9h2.6c0.9,2.5,1.7,5,2.6,7.3c0.8,2.4,1.7,4.6,2.6,6.6c0.9-2,1.7-4.2,2.6-6.6c0.8-2.4,1.7-4.8,2.5-7.4H132.1
	z"/>
<path fill="#FFFFFF" d="M136.9,39.6V22.8h10.2v2h-7.9v5h7v2h-7v5.8h8.5v2H136.9z"/>
<path fill="#FFFFFF" d="M163.2,37.5v2h-10.1V22.8h2.3v14.7H163.2z"/>
<path fill="#FAE35C" d="M176.1,39.9c-1.1,0-2-0.2-2.8-0.5c-0.8-0.3-1.5-0.8-2-1.4c-0.5-0.6-0.9-1.3-1.1-2.1
	c-0.2-0.8-0.4-1.7-0.4-2.6V22.8h2.3v10.2c0,1.7,0.4,2.9,1.1,3.6c0.7,0.8,1.7,1.1,2.9,1.1c0.6,0,1.1-0.1,1.6-0.3
	c0.5-0.2,0.9-0.5,1.3-0.9c0.4-0.4,0.6-0.9,0.8-1.5c0.2-0.6,0.3-1.3,0.3-2.2V22.8h2.3v10.5c0,0.9-0.1,1.8-0.4,2.6
	c-0.3,0.8-0.6,1.5-1.2,2.1c-0.5,0.6-1.2,1.1-2,1.4C178.1,39.8,177.2,39.9,176.1,39.9z"/>
<path fill="#FAE35C" d="M191.3,22.7c2.4,0,4.2,0.4,5.4,1.3c1.3,0.9,1.9,2.2,1.9,4c0,1-0.2,1.8-0.5,2.5c-0.3,0.7-0.8,1.2-1.5,1.7
	c-0.7,0.4-1.4,0.7-2.4,0.9c-0.9,0.2-2,0.3-3.2,0.3h-1.9v6.2h-2.3V23.1c0.7-0.2,1.4-0.3,2.2-0.3C189.9,22.7,190.6,22.7,191.3,22.7z
	 M191.5,24.7c-1,0-1.8,0-2.3,0.1v6.6h1.8c0.8,0,1.5-0.1,2.2-0.2c0.6-0.1,1.2-0.3,1.6-0.5c0.4-0.2,0.8-0.6,1-1c0.2-0.4,0.4-1,0.4-1.7
	c0-0.6-0.1-1.2-0.4-1.6c-0.2-0.4-0.6-0.8-1-1c-0.4-0.2-0.9-0.4-1.5-0.5C192.7,24.8,192.1,24.7,191.5,24.7z"/>
<g>
	<g>
		<path fill="#FAE35C" d="M30.9,24.3l8.9,15.1H31h-0.3H22L30.9,24.3 M30.9,18.7L17,42.2h13.7H31h13.7L30.9,18.7L30.9,18.7z"/>
	</g>
</g>
</svg>
