<?xml version="1.0" encoding="utf-8"?>
<!-- Generator: Adobe Illustrator 18.0.0, SVG Export Plug-In . SVG Version: 6.00 Build 0)  -->
<!DOCTYPE svg PUBLIC "-//W3C//DTD SVG 1.1//EN" "http://www.w3.org/Graphics/SVG/1.1/DTD/svg11.dtd">
<svg version="1.1" id="Layer_1" xmlns="http://www.w3.org/2000/svg" xmlns:xlink="http://www.w3.org/1999/xlink" x="0px" y="0px"
	 viewBox="0 0 72 72" enable-background="new 0 0 72 72" xml:space="preserve">
<g>
	<g>
		<path fill="#1B1B1B" d="M41.5,16H40v-0.3c0-2.2-1.8-4-4-4s-4,1.8-4,4V16h-1.5v-0.3c0-3,2.5-5.5,5.5-5.5s5.5,2.5,5.5,5.5V16z"/>
	</g>
	<g>
		<path fill="#1B1B1B" d="M43.7,29.8c-1.2,0-2.3-0.9-2.4-2.2l0-0.2c-0.3-2.6-2.6-4.6-5.2-4.6c-2.6,0-4.9,2-5.2,4.6l0,0.2
			c-0.2,1.2-1.2,2.1-2.4,2.1h-0.7c-1.4,0-2.5-1.1-2.5-2.5V17.3c0-1.1,0.9-2.1,2.1-2.1h16.9c1.1,0,2.1,0.9,2.1,2.1v10.1
			C46.2,28.7,45.1,29.8,43.7,29.8z M36,21.3c3.4,0,6.3,2.5,6.7,5.9l0,0.2c0.1,0.5,0.5,0.8,1,0.8c0.5,0,1-0.4,1-1V17.3
			c0-0.3-0.3-0.6-0.6-0.6H27.2c-0.3,0-0.6,0.3-0.6,0.6v10.1c0,0.5,0.4,1,1,1h0.7c0.5,0,0.9-0.4,1-0.8l0-0.2
			C29.7,23.9,32.6,21.3,36,21.3z"/>
	</g>
	<g>
		<path fill="#1B1B1B" d="M64,61.9H8c-1.3,0-2.3-1-2.3-2.3v-38c0-1.3,1-2.3,2.3-2.3h14.2v1.5H8c-0.5,0-0.8,0.4-0.8,0.8v38
			c0,0.5,0.4,0.8,0.8,0.8H64c0.5,0,0.8-0.4,0.8-0.8v-38c0-0.5-0.4-0.8-0.8-0.8H49.1v-1.5H64c1.3,0,2.3,1,2.3,2.3v38
			C66.3,60.8,65.2,61.9,64,61.9z"/>
	</g>
	<g>
		<g id="XMLID_1986_">
			<path fill="#1B1B1B" d="M29.4,53H16.3l0.6-4.3c0.2-0.8,0.7-1.4,1.5-1.6l2.3-0.5l0.2,0.1c0,0,1,0.4,2.1,0.6
				c1.1-0.2,2.1-0.6,2.1-0.6l0.2-0.1l2.3,0.5c0.7,0.2,1.3,0.8,1.5,1.6l0,0.1L29.4,53z M18,51.5h9.8L27.4,49
				c-0.1-0.2-0.2-0.4-0.3-0.4l-1.8-0.4c-0.4,0.2-1.3,0.5-2.4,0.7l-0.1,0l-0.1,0c-1-0.1-1.9-0.5-2.4-0.7l-1.8,0.4
				c-0.1,0-0.3,0.2-0.3,0.4L18,51.5z"/>
		</g>
		<g id="XMLID_1985_">
			<path fill="#1B1B1B" d="M22.8,46.1c-1.8,0-3.3-1.6-3.3-3.5s1.5-3.5,3.3-3.5s3.3,1.6,3.3,3.5S24.7,46.1,22.8,46.1z M22.8,40.6
				c-1,0-1.8,0.9-1.8,2c0,1.1,0.8,2,1.8,2c1,0,1.8-0.9,1.8-2C24.6,41.5,23.8,40.6,22.8,40.6z"/>
		</g>
	</g>
	<g>
		<g>
			<rect x="39.2" y="35.3" fill="#1B1B1B" width="19.1" height="1.5"/>
		</g>
		<g>
			<rect x="39.2" y="43.4" fill="#1B1B1B" width="19.1" height="1.5"/>
		</g>
		<g>
			<rect x="39.2" y="51.5" fill="#1B1B1B" width="19.1" height="1.5"/>
		</g>
	</g>
	<g>
		<path fill="#1B1B1B" d="M31.7,53H14V35.3h17.7V53z M15.5,51.5h14.7V36.8H15.5V51.5z"/>
	</g>
</g>
</svg>
