<?xml version="1.0" encoding="utf-8"?>
<!-- Generator: Adobe Illustrator 18.0.0, SVG Export Plug-In . SVG Version: 6.00 Build 0)  -->
<!DOCTYPE svg PUBLIC "-//W3C//DTD SVG 1.1//EN" "http://www.w3.org/Graphics/SVG/1.1/DTD/svg11.dtd">
<svg version="1.1" id="Layer_1" xmlns="http://www.w3.org/2000/svg" xmlns:xlink="http://www.w3.org/1999/xlink" x="0px" y="0px"
	 viewBox="0 0 72 72" enable-background="new 0 0 72 72" xml:space="preserve">
<g>
	<g>
		<g>
			<path fill="#1B1B1B" d="M26.8,32.4l-1.5,0c0-0.5,0.7-7.7,0.8-9.1c0-0.2,0.1-0.4,0.3-0.6l5.7-3.7l0.8,1.3l-5.4,3.5
				C27.3,27,26.8,32,26.8,32.4z"/>
		</g>
		<g>
			<path fill="#1B1B1B" d="M36.5,29.6c-0.2,0-0.3-0.1-0.5-0.2l-2.3-1.9c-1.1-0.9-1.8-2.3-1.8-3.7l-0.1-4.2c0-0.3,0.2-0.6,0.4-0.7
				c0.3-0.1,0.6-0.1,0.8,0.1c1,0.7,2.2,1.1,3.5,1.1s2.5-0.4,3.5-1.1c0.2-0.2,0.5-0.2,0.8-0.1c0.3,0.1,0.4,0.4,0.4,0.7l-0.1,4.2
				c0,1.4-0.7,2.8-1.8,3.7L37,29.5C36.8,29.6,36.7,29.6,36.5,29.6z M33.4,20.9l0.1,2.9c0,1,0.5,1.9,1.2,2.6l1.8,1.5l1.8-1.5
				c0.8-0.6,1.2-1.6,1.2-2.6l0.1-2.9C37.7,21.9,35.3,21.9,33.4,20.9z"/>
		</g>
		<g>
			<path fill="#1B1B1B" d="M46.2,32.4c0-0.4-0.5-5.3-0.8-8.6L40,20.2l0.8-1.3l5.7,3.7c0.2,0.1,0.3,0.3,0.3,0.6
				c0.1,1.4,0.8,8.5,0.8,9.1L46.2,32.4l0.8,0L46.2,32.4z"/>
		</g>
		<g>
			<path fill="#1B1B1B" d="M36.5,18.7c-2.7,0-4.9-2.6-4.9-5.9S33.8,7,36.5,7s4.9,2.6,4.9,5.9S39.2,18.7,36.5,18.7z M36.5,8.5
				c-1.9,0-3.4,2-3.4,4.4s1.5,4.4,3.4,4.4s3.4-2,3.4-4.4S38.4,8.5,36.5,8.5z"/>
		</g>
	</g>
	<g>
		<g>
			<path fill="#1B1B1B" d="M8.1,65.6l-1.5,0c0-0.5,0.7-7.7,0.8-9.1c0-0.2,0.1-0.4,0.3-0.6l5.7-3.7l0.8,1.3L8.8,57
				C8.5,60.3,8.1,65.2,8.1,65.6z"/>
		</g>
		<g>
			<path fill="#1B1B1B" d="M17.8,62.9c-0.2,0-0.3-0.1-0.5-0.2L15,60.8c-1.1-0.9-1.8-2.3-1.8-3.7l-0.1-4.2c0-0.3,0.2-0.6,0.4-0.7
				c0.3-0.1,0.6-0.1,0.8,0.1c1,0.7,2.2,1.1,3.5,1.1s2.5-0.4,3.5-1.1c0.2-0.2,0.5-0.2,0.8-0.1c0.3,0.1,0.4,0.4,0.4,0.7l-0.1,4.2
				c0,1.4-0.7,2.8-1.8,3.7l-2.3,1.9C18.1,62.8,17.9,62.9,17.8,62.9z M14.6,54.2l0.1,2.9c0,1,0.5,1.9,1.2,2.6l1.8,1.5l1.8-1.5
				c0.8-0.6,1.2-1.6,1.2-2.6l0.1-2.9C18.9,55.1,16.6,55.1,14.6,54.2z"/>
		</g>
		<g>
			<path fill="#1B1B1B" d="M27.4,65.6c0-0.4-0.5-5.3-0.8-8.6l-5.4-3.5l0.8-1.3l5.7,3.7c0.2,0.1,0.3,0.3,0.3,0.6
				c0.1,1.4,0.8,8.5,0.8,9.1L27.4,65.6l0.8,0L27.4,65.6z"/>
		</g>
		<g>
			<path fill="#1B1B1B" d="M17.8,52c-2.7,0-4.9-2.6-4.9-5.9s2.2-5.9,4.9-5.9s4.9,2.6,4.9,5.9S20.5,52,17.8,52z M17.8,41.8
				c-1.9,0-3.4,2-3.4,4.4c0,2.4,1.5,4.4,3.4,4.4s3.4-2,3.4-4.4C21.2,43.7,19.6,41.8,17.8,41.8z"/>
		</g>
		<g>
			<rect x="17" y="62.1" fill="#1B1B1B" width="1.5" height="3.5"/>
		</g>
	</g>
	<g>
		<g>
			<path fill="#1B1B1B" d="M45.5,64.8l-1.5,0c0-0.5,0.7-7.7,0.8-9.1c0-0.2,0.1-0.4,0.3-0.6l5.7-3.7l0.8,1.3l-5.4,3.5
				C46,59.5,45.5,64.4,45.5,64.8z"/>
		</g>
		<g>
			<path fill="#1B1B1B" d="M55.2,62.1c-0.2,0-0.3-0.1-0.5-0.2L52.4,60c-1.1-0.9-1.8-2.3-1.8-3.7l-0.1-4.2c0-0.3,0.2-0.6,0.4-0.7
				c0.3-0.1,0.6-0.1,0.8,0.1c1,0.7,2.2,1.1,3.5,1.1c1.3,0,2.5-0.4,3.5-1.1c0.2-0.2,0.5-0.2,0.8-0.1c0.3,0.1,0.4,0.4,0.4,0.7
				l-0.1,4.2c0,1.4-0.7,2.8-1.8,3.7l-2.3,1.9C55.6,62.1,55.4,62.1,55.2,62.1z M52.1,53.4l0.1,2.9c0,1,0.5,1.9,1.2,2.6l1.8,1.5
				l1.8-1.5c0.8-0.6,1.2-1.6,1.2-2.6l0.1-2.9C56.4,54.3,54,54.3,52.1,53.4z"/>
		</g>
		<g>
			<path fill="#1B1B1B" d="M64.9,64.8c0-0.4-0.5-5.3-0.8-8.6l-5.4-3.5l0.8-1.3l5.7,3.7c0.2,0.1,0.3,0.3,0.3,0.6
				c0.1,1.4,0.8,8.5,0.8,9.1L64.9,64.8l0.8,0L64.9,64.8z"/>
		</g>
		<g>
			<path fill="#1B1B1B" d="M55.2,51.2c-2.7,0-4.9-2.6-4.9-5.9c0-3.2,2.2-5.9,4.9-5.9s4.9,2.6,4.9,5.9C60.1,48.6,57.9,51.2,55.2,51.2
				z M55.2,41c-1.9,0-3.4,2-3.4,4.4c0,2.4,1.5,4.4,3.4,4.4s3.4-2,3.4-4.4C58.6,42.9,57.1,41,55.2,41z"/>
		</g>
		<g>
			<rect x="54.5" y="61.4" fill="#1B1B1B" width="1.5" height="3.5"/>
		</g>
	</g>
	<g>
		<g>
			<path fill="#1B1B1B" d="M30,50.8c-0.2,0-0.4-0.1-0.5-0.2c-0.3-0.3-0.3-0.8,0-1.1L36,43c0.3-0.3,0.8-0.3,1.1,0s0.3,0.8,0,1.1
				l-6.5,6.5C30.4,50.7,30.2,50.8,30,50.8z"/>
		</g>
		<g>
			<path fill="#1B1B1B" d="M43,50.7c-0.2,0-0.4-0.1-0.5-0.2L36,44c-0.1-0.1-0.2-0.3-0.2-0.5v-7.2c0-0.4,0.3-0.8,0.8-0.8
				s0.8,0.3,0.8,0.8v6.9l6.2,6.2c0.3,0.3,0.3,0.8,0,1.1C43.3,50.6,43.2,50.7,43,50.7z"/>
		</g>
	</g>
	<g>
		<rect x="35.7" y="28.9" fill="#1B1B1B" width="1.5" height="3.5"/>
	</g>
</g>
</svg>
